<svg width="125.9" height="16.1" xmlns="http://www.w3.org/2000/svg">
 <style type="text/css">.st0{fill:url(#SVGID_1_);}
	.st1{fill:#343434;}</style>

 <g>
  <title>background</title>
  <rect fill="#ffffff" id="canvas_background" height="18.1" width="127.9" y="-1" x="-1"/>
 </g>
 <g>
  <title>Layer 1</title>
  <g id="svg_1">
   <path id="svg_2" d="m15.2,5.5l-4.5,-0.7l-2,-4.3c-0.1,-0.3 -0.4,-0.5 -0.8,-0.5c-0.3,0 -0.6,0.2 -0.8,0.5l-2,4.3l-4.4,0.7c-0.3,0 -0.6,0.3 -0.7,0.6c-0.1,0.3 0,0.7 0.2,0.9l3.3,3.3l-0.8,4.7c-0.1,0.3 0.1,0.7 0.3,0.9c0.3,0.2 0.6,0.2 0.9,0.1l4,-2.2l4,2.2c0.1,0.1 0.3,0.1 0.4,0.1c0.2,0 0.4,-0.1 0.5,-0.2c0.3,-0.2 0.4,-0.5 0.3,-0.9l-0.8,-4.7l3.3,-3.3c0.2,-0.2 0.3,-0.6 0.2,-0.9c0,-0.4 -0.3,-0.6 -0.6,-0.6z" class="st0"/>
  </g>
  <g id="svg_3">
   <text font-weight="bold" stroke="null" transform="matrix(0.7024690317974489,0,0,0.5653804733022834,14.054808164202417,5.861545260721135) " xml:space="preserve" text-anchor="start" font-family="'Courier New', Courier, monospace" font-size="24" id="svg_13" y="10.326634" x="26.010567" fill-opacity="null" stroke-opacity="null" stroke-width="0" fill="#000000">SELLER</text>
  </g>
 </g>
</svg>